<svg xmlns="http://www.w3.org/2000/svg" width="92" height="92" viewBox="0 0 92 92">
  <defs>
    <style>
      .cls-1 {
        fill: #9d9d9d;
        fill-rule: evenodd;
      }
    </style>
  </defs>
  <path class="cls-1" d="M336.885,290.678c-2.863.715-4.67-.54-4.827-3.412-0.1-1.786-.018-3.582-0.018-5.487l1.642,0.16c0,1.4-.011,2.755.006,4.113a12.973,12.973,0,0,0,.127,1.5c0.17,1.321.558,1.638,1.905,1.6,0.264-.008.528,0,0.849,0,0.067,0.271.137,0.52,0.189,0.773S336.844,290.429,336.885,290.678Zm1.977-68.928c-0.107.726-.178,1.208-0.22,1.488-1.82,0-3.518,0-5.216,0-1.891.007-2.093,0.206-2.211,2.117-0.01.162-.049,0.323-0.082,0.529l-1.491.19a3.4,3.4,0,0,1,3.381-4.577C334.921,221.514,336.817,221.657,338.862,221.75Zm50.517-.869c-0.11-.561-0.2-1.017-0.288-1.465,1.843-.857,4.24.03,4.6,1.964a61.207,61.207,0,0,1,.525,6.825l-1.764-.1c-0.082-1.805-.119-3.537-0.253-5.261-0.141-1.806-.419-2.009-2.245-1.966C389.788,220.884,389.626,220.881,389.379,220.881Zm-11.834-4.218-1.449.663c-0.83-1.4-1.6-2.756-2.426-4.071-1.307-2.068-1.493-2.1-3.728-.814-0.33-.407-0.676-0.832-1.021-1.256,2.283-1.975,4.393-1.708,5.971.753,0.683,1.065,1.3,2.173,1.929,3.271C377.069,215.64,377.267,216.1,377.545,216.663Zm-32.923,1.729-0.484,1.455c-1.55-.331-3.033-0.7-4.535-0.959-2.577-.446-2.588-0.414-3.238,2.157l-1.585-.092c-0.084-2.95,2.147-4.532,4.562-3.894,1.547,0.408,3.12.719,4.679,1.084A4.24,4.24,0,0,1,344.622,218.392Zm-21.394,39.732c-1.081,1.525-2.113,2.922-3.079,4.362-0.946,1.411-.828,1.861.577,2.868,0.158,0.113.3,0.249,0.479,0.4-0.256.494-.5,0.958-0.734,1.42-2.782-1.4-3.335-3.354-1.66-5.817,0.974-1.433,2.039-2.805,3.154-4.33Zm17.532-41.351c0.638-3,2.454-4.064,5.225-3.055,1.651,0.6,3.261,1.32,4.969,2.018-0.3.586-.523,1.023-0.758,1.483-1.645-.64-3.24-1.3-4.862-1.882-1.695-.61-2.054-0.421-2.758,1.2C342.075,217.693,341.382,216.675,340.76,216.773ZM394.8,284.132l1.541-.2a3.373,3.373,0,0,1-2.9,4.55c-2.059.066-4.126-.129-6.311-0.213,0.089-.66.153-1.137,0.232-1.716,1.218,0.069,2.406.147,3.6,0.2,0.6,0.027,1.2.021,1.805,0.013,1.595-.021,1.949-0.365,2-1.922C394.772,284.647,394.784,284.449,394.8,284.132Zm-18.747-71.36c2.516-1.6,4.608-1.01,5.726,1.62,0.573,1.351,1.044,2.745,1.551,4.124,0.114,0.309.185,0.635,0.31,1.076l-1.53.4c-0.578-1.51-1.091-2.954-1.681-4.367-0.949-2.27-1.162-2.345-3.548-1.461Zm29.979,45.69,1.094-1.116c2.116,1.734,2.112,4.168-.049,5.811-1.219.927-2.5,1.766-3.767,2.635-0.267.184-.563,0.326-0.915,0.528l-0.783-1.373c1.261-.892,2.526-1.744,3.744-2.659C407.451,260.712,407.45,260.632,406.031,258.462ZM329.373,231.4c0.13,0.7.214,1.149,0.311,1.667-1.4.4-2.781,0.767-4.139,1.2-2.692.857-2.687,0.872-2.165,3.577l-1.421.648c-1.363-2.709-.586-4.686,2.228-5.6C325.864,232.346,327.575,231.909,329.373,231.4Zm35-17.43-1.242,1.161c-1.067-.922-2.113-1.836-3.171-2.736-0.381-.325-0.782-0.628-1.188-0.923-1-.731-1.589-0.653-2.4.3-0.192.225-.386,0.448-0.622,0.722l-1.358-.844c1.426-2.592,3.579-3.073,5.806-1.283C361.6,211.491,362.928,212.71,364.378,213.965ZM331.451,285.88c-2.924.292-4.61-1.335-4.318-4.064,0.166-1.557.43-3.1,0.66-4.656,0.038-.257.125-0.508,0.209-0.841l1.483,0.375c-0.21,1.812-.454,3.557-0.6,5.311-0.143,1.688.092,1.953,1.8,2.189C331.888,284.361,331.172,285.265,331.451,285.88Zm74.5-34.581,0.974-1.3c2.5,1.81,2.736,3.871.7,5.993-1.014,1.059-2.1,2.049-3.156,3.064-0.214.2-.458,0.377-0.762,0.626l-0.883-1.1c1.224-1.305,2.395-2.531,3.54-3.779,1.292-1.408,1.272-1.813-.075-3.133C406.2,251.574,406.116,251.474,405.954,251.3Zm-82.912,22.745c-1.238-.422-2.4-0.868-2.78-2.1a4.311,4.311,0,0,1-.11-2.593c0.728-1.89,1.728-3.675,2.681-5.63l1.446,0.905c-0.774,1.594-1.548,3.1-2.246,4.645-0.8,1.755-.644,2.1,1.076,2.949,0.117,0.058.228,0.126,0.429,0.237C323.38,272.967,323.224,273.463,323.042,274.044Zm34.564-59.738-1.021,1.324c-1.542-.914-3.011-1.823-4.517-2.664-1.6-.9-1.986-0.757-2.929.858-0.066.114-.145,0.221-0.285,0.433l-1.5-.626c1.093-2.827,3.09-3.6,5.63-2.155C354.52,212.345,356,213.314,357.606,214.306Zm-7.735,78.36c0.927,1.542,1.772,3.014,2.683,4.444,1.027,1.612,1.422,1.676,3.06.678,0.111-.067.225-0.127,0.411-0.232l1.007,1.211c-1.93,1.958-4.345,1.78-5.765-.443-1-1.569-1.9-3.206-2.909-4.924Zm14.482,6.528c-1.985,2.337-4.068,2.408-6.04.2-1.172-1.312-2.252-2.707-3.432-4.136l1.393-.945c1.006,1.2,1.958,2.4,2.978,3.532,1.738,1.935,1.823,1.925,3.885.3C363.53,298.481,363.942,298.837,364.353,299.194ZM401.177,239.8l-1.587-.681c0.473-1.584.928-3.141,1.4-4.69,0.564-1.839.368-2.669-1.631-3.023a1.354,1.354,0,0,1-.317-0.177c0.06-.468.123-0.952,0.184-1.426a3.306,3.306,0,0,1,3.713,3.76C402.526,235.641,401.8,237.655,401.177,239.8Zm-2.018,38.67,1.513-.4c1.052,2.425-.141,4.7-2.661,5.069-1.874.277-3.762,0.456-5.725,0.688v-1.7c1.557-.189,3.107-0.374,4.655-0.568,0.331-.042.66-0.107,0.987-0.176a1.457,1.457,0,0,0,1.375-1.9C399.263,279.177,399.218,278.883,399.159,278.472ZM323.52,243.577l0.844,1.484c-1.3.919-2.57,1.774-3.791,2.7-2.049,1.55-2.052,1.67-.554,3.851l-1.131,1.047c-2.083-1.611-2.152-4.126-.124-5.688C320.268,245.81,321.853,244.759,323.52,243.577Zm79.057,28.616,1.378-.659c1.448,2.271.676,4.6-1.808,5.468-0.945.332-1.9,0.622-2.87,0.891-0.834.232-1.685,0.407-2.67,0.641-0.107-.542-0.206-1.039-0.315-1.59,1.509-.437,2.953-0.817,4.373-1.273C403.18,274.86,403.217,274.764,402.577,272.193Zm-2.525.557-0.592-1.577c1.438-.7,2.858-1.351,4.241-2.075,2.226-1.166,2.262-1.325,1.137-3.62l1.316-.94c1.776,2.309,1.366,4.518-1.079,5.8C403.457,271.181,401.783,271.923,400.052,272.75Zm-66.363-46.581v1.706c-1.6.2-3.158,0.358-4.7,0.595-2.364.363-2.466,0.526-2.186,3.023l-1.453.461a3.379,3.379,0,0,1,2.355-5.032C329.64,226.6,331.6,226.425,333.689,226.169Zm29.161-14.287-1.222-1.072c1.981-2.331,4.072-2.414,6.024-.223,1.173,1.316,2.258,2.712,3.447,4.151l-1.384.96c-1.048-1.245-2.023-2.467-3.067-3.627C364.987,210.223,364.862,210.234,362.85,211.882Zm38.858,33.493c0.8-1.651,1.584-3.195,2.3-4.771,0.733-1.619.553-2.022-1.054-2.79-0.146-.07-0.287-0.152-0.5-0.265,0.157-.521.308-1.02,0.457-1.515,2.792,0.631,3.865,2.7,2.7,5.256-0.757,1.657-1.625,3.264-2.479,4.964Zm-24.57,50.374,1.457,0.6c-0.925,2.766-3.023,3.623-5.494,2.231-1.568-.883-3.08-1.866-4.716-2.865l1.01-1.34c1.567,0.925,3.043,1.833,4.554,2.678,1.565,0.876,1.948.743,2.876-.819C376.909,296.094,377,295.959,377.138,295.749Zm-15.526.285,1.216-1.145c1.393,1.17,2.7,2.315,4.059,3.395,1.4,1.117,1.775,1.046,2.964-.357,0.105-.124.224-0.235,0.387-0.406l1.349,0.831c-1.463,2.623-3.6,3.069-5.885,1.222C364.332,298.465,363.033,297.269,361.612,296.034Zm43.164-51.778c0.245-.48.484-0.946,0.72-1.409,2.75,1.288,3.352,3.34,1.688,5.79-0.99,1.459-2.08,2.85-3.181,4.346l-1.254-1.109c0.99-1.383,1.986-2.714,2.917-4.09,1.174-1.737,1.1-2.023-.559-3.234C405,244.473,404.91,244.376,404.776,244.256ZM398.123,233.7l-1.653-.4c0.2-1.514.393-2.992,0.575-4.472a12.867,12.867,0,0,0,.1-1.4,1.383,1.383,0,0,0-1.4-1.592c-0.357-.055-0.715-0.1-1.092-0.155-0.026-.335-0.053-0.6-0.064-0.862-0.01-.227,0-0.454,0-0.669,2.7-.425,4.554,1.286,4.266,3.89C398.647,229.9,398.378,231.739,398.123,233.7Zm-55.547,59.282c0.206,0.545.38,1.009,0.554,1.469a3.419,3.419,0,0,1-5.266-2.161c-0.29-1.1-.518-2.209-0.733-3.322-0.145-.751-0.22-1.515-0.343-2.394l1.558-.212c0.383,1.772.714,3.47,1.121,5.15,0.431,1.777.816,1.98,2.619,1.571C342.213,293.058,342.341,293.033,342.576,292.985Zm47.011-3.951h1.589c0.045,2.879-1.623,4.388-4.368,3.918-1.8-.308-3.57-0.765-5.482-1.184l0.52-1.639c0.933,0.221,1.822.45,2.719,0.638,0.848,0.178,1.7.325,2.558,0.467,1.576,0.262,1.977-.011,2.308-1.535C389.479,289.477,389.535,289.256,389.587,289.034Zm-64.751-18.816,1.526,0.655c-0.537,1.9-1.082,3.748-1.571,5.607a1.361,1.361,0,0,0,.987,1.869c1.271,0.454,1.271.454,0.912,1.9a3.4,3.4,0,0,1-3.568-4.333C323.606,274.02,324.245,272.164,324.836,270.218Zm24.284,25.611c0.3,0.524.558,0.979,0.818,1.434-2.728,1.565-4.642.96-5.816-1.853-0.666-1.6-1.23-3.231-1.878-4.951L343.89,290c0.339,0.928.661,1.858,1.019,2.776,0.315,0.806.652,1.606,1.011,2.393,0.6,1.309,1.1,1.5,2.445.96C348.581,296.042,348.8,295.957,349.12,295.829Zm-26.923-45.6,0.859,1.061c-1.038,1.184-2.024,2.349-3.054,3.474-1.778,1.942-1.79,1.959,0,3.941l-0.9,1.251c-2.345-1.313-2.8-3.754-1.013-5.657C319.383,252.925,320.773,251.637,322.2,250.233Zm61.464,42.649,1.559,0.347c-0.581,2.979-2.421,4.067-5.191,3.059-1.411-.513-2.785-1.128-4.172-1.706-0.241-.1-0.464-0.247-0.776-0.417,0.25-.489.482-0.944,0.7-1.378,1.708,0.659,3.312,1.313,4.94,1.9,1.676,0.6,2.03.4,2.7-1.287C383.487,293.245,383.561,293.1,383.661,292.882ZM383.4,217.011l-0.548-1.47c2.4-1.241,4.674-.256,5.3,2.3,0.37,1.52.631,3.067,0.928,4.6a9.484,9.484,0,0,1,.082,1l-1.555.189c-0.266-1.354-.523-2.682-0.792-4.008-0.08-.392-0.189-0.777-0.291-1.164-0.451-1.716-.809-1.936-2.547-1.57Zm-57.461,20.247c0.232,0.621.405,1.083,0.589,1.574-1.43.692-2.824,1.325-4.179,2.032-2.269,1.183-2.289,1.289-1.226,3.682l-1.331.93c-1.761-2.562-1.319-4.545,1.321-5.92C322.676,238.745,324.291,238.041,325.943,237.258Zm-0.958,18.9-1.142-1.082c1.194-1.019,2.305-2.02,3.471-2.951,1.7-1.356,1.715-1.334.382-3.112l1.291-.82c0.315,0.4.627,0.743,0.891,1.123a2.167,2.167,0,0,1-.36,3.06C328.05,253.629,326.55,254.851,324.985,256.153Zm34.931,34.517-0.924-1.283a11.746,11.746,0,0,1,1.69-1.293,1.906,1.906,0,0,1,2.321.369c1.4,1.431,2.731,2.924,4.156,4.461l-1,1.242c-1.167-1.272-2.279-2.469-3.372-3.681-1.128-1.253-1.248-1.267-2.467-.145C360.223,290.428,360.117,290.506,359.916,290.67Zm11.742-.931-1.262-.9a13.622,13.622,0,0,1,1.037-1.653,1.968,1.968,0,0,1,2.463-.52c1.81,0.836,3.577,1.766,5.425,2.69l-0.556,1.5c-1.535-.766-3.01-1.46-4.446-2.227-1.455-.776-1.583-0.765-2.38.688C371.877,289.426,371.8,289.531,371.658,289.739Zm-6.689-72.69c0.358-.324.7-0.633,1.177-1.064,0.885,1.219,1.765,2.37,2.579,3.567,1.245,1.832,1.226,1.845,3.188.816l0.611,1.195c-1.739,1.811-3.239,1.665-4.574-.338C367.026,219.839,366.016,218.509,364.969,217.049Zm-37.3,43.711,0.963-1.151c0.424,0.273.825,0.5,1.195,0.775a2.157,2.157,0,0,1,.642,3.012c-0.983,1.666-2.007,3.307-3.062,5.038l-1.442-.667c0.876-1.452,1.685-2.862,2.562-4.228,0.906-1.413.911-1.524-.446-2.444C327.951,261,327.832,260.889,327.674,260.76Zm64.592-30,1.581,0.171c-0.312,1.515-.564,2.95-0.911,4.362-0.45,1.838-.964,2.116,1.6,2.782l-0.456,1.252c-2.406.1-3.569-1.415-2.906-3.522C391.674,234.2,391.9,232.5,392.266,230.756Zm-26.195-11.417,1,1.387a11.517,11.517,0,0,1-2.443,1.316,2.162,2.162,0,0,1-1.7-.576c-1.413-1.361-2.714-2.84-4.132-4.354l0.891-1.122c1.109,1.1,2.192,2.129,3.211,3.212C364.378,220.768,364.359,220.786,366.071,219.339Zm11.166,68.5-1.193-.58c0.165-2.441,1.508-3.311,3.767-2.556,1.58,0.528,3.194.955,4.911,1.462-0.07.434-.145,0.906-0.253,1.577-1.49-.434-2.9-0.8-4.277-1.254C378.12,285.8,378.128,285.775,377.237,287.836ZM330.1,274.111l-1.525-.424c0.618-1.564,1.18-3.08,1.816-4.565,0.69-1.609.694-1.667-.884-2.381-0.117-.053-0.225-0.126-0.41-0.231l0.772-1.335a11.543,11.543,0,0,1,1.842.981,1.982,1.982,0,0,1,.593,2.444C331.6,270.4,330.87,272.188,330.1,274.111Zm57.57-47.8,1.6-.152c0,1.667.075,3.26-.02,4.842-0.108,1.788-.175,1.782,1.633,2.05a3.324,3.324,0,0,1,.42.127c-0.086.45-.165,0.863-0.241,1.257-2.429.441-3.566-.645-3.412-3.027C387.755,229.75,387.669,228.08,387.669,226.31Zm1.843,55.869v1.586c-1.712-.22-3.353-0.4-4.984-0.647-1.526-.231-1.632-0.184-1.918,1.311-0.031.16-.082,0.316-0.121,0.466-1.453-.051-1.576-0.206-1.276-1.567a2.17,2.17,0,0,1,2.392-1.929C385.555,281.616,387.5,281.909,389.512,282.179Zm7.3-15.43-1.481.6a13.009,13.009,0,0,1-.827-2.233,1.969,1.969,0,0,1,1.145-2.056c1.635-.965,3.276-1.918,5.014-2.934l0.969,1.255c-1.45.859-2.821,1.714-4.232,2.5-1.519.842-1.576,0.939-.782,2.431C396.677,266.423,396.721,266.542,396.812,266.749Zm4.177-12.894,1.153,1.079c-1.195,1.017-2.305,2.011-3.467,2.939-1.68,1.34-1.7,1.319-.4,3.125l-1.316.844a11.5,11.5,0,0,1-1.163-1.783,2.061,2.061,0,0,1,.748-2.5C398,256.336,399.464,255.124,400.989,253.855Zm-35.2,36.871c-0.346-.4-0.645-0.747-1-1.159,0.286-.371.563-0.786,0.894-1.15a2.143,2.143,0,0,1,2.981-.328c1.577,1.118,3.128,2.273,4.776,3.475l-0.771,1.373c-1.266-.9-2.5-1.73-3.685-2.629C367.266,289,367.282,288.982,365.79,290.726Zm31.149-18.663c0.158,0.439.312,0.868,0.535,1.49-1.455.322-2.836,0.631-4.22,0.931-0.293.063-.593,0.091-0.889,0.139-1.362.223-1.489,0.405-1.268,1.776,0.032,0.194.028,0.393,0.042,0.624a3.768,3.768,0,0,1-.5.09c-0.3.014-.594,0-0.874,0-0.891-2.455-.171-3.625,2.331-4.039C393.694,272.814,395.275,272.416,396.939,272.063Zm-48.085,18.174-1.527.659c-0.459-1.527-.938-2.97-1.325-4.437-0.54-2.046-.51-2.054-2.648-1.54-0.085-.471-0.168-0.937-0.248-1.384,2.422-1.12,3.654-.538,4.251,1.917,0.2,0.809.428,1.61,0.676,2.405C348.27,288.615,348.55,289.361,348.854,290.237Zm51.42-42.644,1.338,0.916c-1.155,1.344-2.219,2.629-3.337,3.865-1.018,1.127-1.038,1.277.118,2.326a2.445,2.445,0,0,0,.46.263,5.235,5.235,0,0,1-.369.431c-0.25.221-.51,0.429-0.756,0.635-2.2-1.318-2.39-2.757-.709-4.6C398.12,250.221,399.138,248.937,400.274,247.593ZM336.45,227.838v-1.585c1.507,0.176,2.958.3,4.392,0.525,2.143,0.341,2.137.373,2.7-1.8l1.281,0.348c0.244,2.383-.934,3.514-3.2,3.173C339.938,228.251,338.246,228.066,336.45,227.838Zm46.37-5.281,1.526-.372c0.194,1.509.432,2.946,0.552,4.392,0.184,2.222.149,2.225,2.344,2.176v1.6a12.088,12.088,0,0,1-2.392-.156,1.945,1.945,0,0,1-1.36-1.819C383.266,226.49,383.054,224.6,382.82,222.557ZM353.451,288.42c1.937-1.82,3.243-1.657,4.656.461,0.908,1.36,1.9,2.663,2.911,4.068l-1.2,1.084c-0.97-1.37-1.936-2.675-2.838-4.024-0.977-1.462-1-1.49-2.482-.56a4.539,4.539,0,0,1-.426.2Zm-0.13-71.345c1.278,0.905,2.521,1.734,3.708,2.637,1.688,1.283,1.671,1.307,3.122-.375l1.337,1.277a17.854,17.854,0,0,1-1.916,1.5,2,2,0,0,1-2.264-.211c-1.57-1.126-3.125-2.271-4.768-3.468Zm45,32.155-0.963,1.152c-0.432-.272-0.836-0.493-1.2-0.763a2.138,2.138,0,0,1-.649-3c0.981-1.667,2.007-3.308,3.067-5.047l1.434,0.658c-0.8,1.349-1.529,2.648-2.33,3.9C396.526,247.931,396.5,247.916,398.325,249.23Zm-51.648-28.578,0.546-1.5c1.541,0.768,3.015,1.463,4.451,2.23,1.455,0.776,1.585.763,2.366-.7,0.062-.117.143-0.224,0.268-0.419l1.257,0.884a15.169,15.169,0,0,1-.873,1.516,2.12,2.12,0,0,1-2.78.609C350.207,222.439,348.516,221.576,346.677,220.652Zm-20.76,21.674c1.667-.634,3.178-1.241,4.712-1.781,1.484-.523,1.576-0.656,1.076-2.144-0.051-.15-0.079-0.308-0.139-0.547l1.369-.307c1.273,2.373.805,3.56-1.6,4.406-1.537.54-3.041,1.178-4.651,1.808C326.478,243.375,326.247,242.943,325.917,242.326Zm56.754-17.186c0.068,0.467.133,0.917,0.2,1.346-2.442,1.083-3.6.508-4.246-1.958-0.413-1.573-.931-3.119-1.433-4.782l1.476-.627c0.477,1.6.969,3.106,1.372,4.636,0.472,1.794.44,1.8,2.284,1.388A1.858,1.858,0,0,1,382.671,225.14ZM325.7,262.387l-1.328-.884c1.1-1.284,2.133-2.542,3.224-3.747,1.167-1.288,1.189-1.321-.1-2.543-0.092-.088-0.164-0.2-0.287-0.344l1.224-1.055a7.091,7.091,0,0,1,1.491,1.983,2.748,2.748,0,0,1-.423,2.11C328.348,259.455,327.01,260.867,325.7,262.387Zm73.6,3.853c0.237,0.438.469,0.864,0.773,1.425-1.622.625-3.127,1.242-4.659,1.783-1.579.558-1.633,0.61-1.115,2.192,0.04,0.122.052,0.253,0.1,0.491l-1.309.32c-1.342-2.2-.832-3.557,1.529-4.386C396.15,267.527,397.65,266.887,399.3,266.24Zm-2.4-22.735-0.788,1.335a12.279,12.279,0,0,1-1.851-1.01,1.949,1.949,0,0,1-.593-2.357c0.7-1.834,1.447-3.646,2.211-5.557l1.528,0.375c-0.575,1.493-1.071,2.9-1.652,4.263C394.927,242.489,394.9,242.478,396.893,243.505ZM325.335,249.9l-0.982-1.283c1.445-.855,2.819-1.713,4.235-2.5,1.525-.842,1.571-0.9.773-2.421a4.629,4.629,0,0,1-.171-0.445l1.268-.523c1.669,2.055,1.4,3.364-.827,4.6C328.206,248.121,326.829,249,325.335,249.9Zm13.4,31.369v-1.407c2.544-.685,3.657.1,3.829,2.618,0.057,0.833.169,1.664,0.283,2.492,0.109,0.789.254,1.574,0.4,2.454l-1.551.394c-0.184-1.18-.375-2.312-0.532-3.448-0.082-.6-0.1-1.2-0.151-1.8-0.113-1.292-.344-1.479-1.641-1.344C339.174,281.247,338.981,281.252,338.731,281.268Zm0.16-52.68c0.492,0.056.916,0.105,1.621,0.184a11.317,11.317,0,0,1-.645,2.679,2.128,2.128,0,0,1-1.565.871c-1.958.1-3.925,0.041-6.023,0.041-0.038-.221-0.119-0.7-0.232-1.36,1.7-.065,3.286-0.17,4.877-0.177,1.778-.007,1.843-0.032,1.875-1.83A2.713,2.713,0,0,1,338.891,228.588ZM371.2,217.894l1.333-.871c0.682,1.378,1.376,2.692,1.989,4.043,0.889,1.959.864,1.97,2.963,1.218l0.417,1.278c-1.989,1.519-3.472,1.132-4.453-1.052C372.763,220.991,371.99,219.514,371.2,217.894Zm-29.656,4.353c1.664,0.5,3.229.943,4.77,1.455s1.658,0.484,2.189-.989c0.054-.15.126-0.294,0.229-0.531l1.251,0.583c-0.369,2.575-1.544,3.3-3.867,2.523-1.574-.524-3.178-0.958-4.857-1.458C341.342,223.351,341.427,222.877,341.541,222.247Zm-10.106,49.669,0.562-1.4a14.769,14.769,0,0,1,1.68.46,2.133,2.133,0,0,1,1.261,2.554c-0.385,1.861-.8,3.716-1.231,5.711l-1.57-.14c0.318-1.538.582-3,.929-4.451C333.564,272.569,333.59,272.576,331.435,271.916Zm-2.406-33.985c-0.128-.364-0.244-0.674-0.343-0.989a3.928,3.928,0,0,1-.071-0.552c1.611-.33,3.193-0.681,4.786-0.972,1.642-.3,1.685-0.326,1.464-1.988-0.017-.13-0.02-0.263-0.035-0.474h1.383c0.919,2.183.183,3.537-2.105,3.943C332.441,237.2,330.789,237.57,329.029,237.931Zm19.379,49.8a5.262,5.262,0,0,1-.137-1.448,6.768,6.768,0,0,1,2.624-.59,2.246,2.246,0,0,1,1.335,1.2c0.892,1.669,1.664,3.4,2.537,5.226l-1.308.855c-0.683-1.368-1.361-2.648-1.967-3.961C350.567,287.007,350.588,287,348.408,287.731Zm-10.084-4.015-1.811.113c0.077-1.718.116-3.333,0.228-4.944,0.12-1.709.1-1.766-1.65-1.936a4.118,4.118,0,0,1-.405-0.09c0.08-.438.16-0.873,0.236-1.288,2.285-.447,3.72.693,3.44,3.034A43.979,43.979,0,0,0,338.324,283.716Zm48.781-2.4c-1.5.055-1.523,0.036-1.47-1.392a2.125,2.125,0,0,1,2.15-2.28c1.926-.052,3.856-0.013,5.93-0.013,0.037,0.221.117,0.7,0.229,1.359-1.543.065-3,.165-4.452,0.179C387.285,279.19,387.285,279.165,387.105,281.316Zm-53,3.179,6.526-.484c0.04,0.461.082,0.938,0.141,1.612-2.057.164-4.036,0.417-6.018,0.441C333.663,286.077,334.353,285.061,334.108,284.5Zm28.783-66.172-1.234-1.042,4.873-4.571c0.438,0.5.78,0.888,1.126,1.28Zm41.973,29.737-0.968,1.4-5.44-3.611c0.254-.405.514-0.823,0.854-1.369Zm-6.326,15.78,1.391-.81c1.073,1.943,2.11,3.823,3.2,5.789l-1.5.781C400.6,267.686,399.59,265.8,398.538,263.84ZM385.351,226c-0.048-.494-0.092-0.946-0.156-1.6l6.545-.6c0.048,0.651.084,1.133,0.125,1.69Zm11.116,14.129c0.207-.491.385-0.916,0.625-1.487l6.055,2.619c-0.286.618-.49,1.06-0.71,1.534Zm-73.635,28.612c0.29-.611.5-1.054,0.726-1.532l5.957,2.66c-0.178.43-.364,0.879-0.615,1.488Zm22.578-45.875-1.525-.482,2.1-6.273,1.589,0.592C346.842,218.783,346.133,220.805,345.41,222.869Zm54.07,28.941,1.059-1.2,4.89,4.435-1.175,1.228Zm-67.427,24.926-6.43-1.571c0.195-.656.334-1.126,0.483-1.63l6.3,1.636C332.3,275.628,332.2,276.094,332.053,276.736Zm44.43,13.584-3.119,5.844c-0.566-.331-1.01-0.592-1.466-0.86l3.146-5.714Zm17.079-55.494c0.112-.472.224-0.939,0.373-1.567l6.4,1.579c-0.179.651-.307,1.12-0.448,1.633Zm-41.028,61.317-0.892-1.45,5.468-3.534c0.252,0.346.534,0.734,0.942,1.293Zm44.07-26.576,1.5-.564,2.208,6.225-1.618.529Zm-76.043-14.595,1.16-1.243,4.788,4.468-1.06,1.2ZM369.184,291.1l1.3,0.95-4.027,5.253-1.31-1.071ZM359.541,212.7l1.3,1.078-4.051,5.129-1.289-.964Zm34.217,62.209,1.559-.316,1.143,6.483-1.684.264C394.432,279.166,394.1,277.079,393.758,274.911Zm-24.895-56.056-0.925-1.322,5.519-3.666c0.351,0.579.617,1.016,0.879,1.447Zm-43.195,15.9,1.633-.487c0.694,2.066,1.362,4.053,2.07,6.158l-1.486.589ZM380,293.91l-1.58-.617,2.154-6.156,1.523,0.5Zm-5.946-75.056,6.026-2.721c0.253,0.622.447,1.1,0.642,1.579l-5.992,2.595Zm12.126,71.719-1.671-.345c0.377-2.181.738-4.273,1.11-6.422l1.577,0.218C386.861,286.192,386.532,288.313,386.181,290.573ZM332.234,235.1l-1.565.321c-0.385-2.177-.757-4.285-1.147-6.487l1.672-.286C331.54,230.8,331.876,232.885,332.234,235.1Zm13.027,57.182,5.979-2.575,0.7,1.442L345.9,293.86ZM321.1,261.944l0.989-1.394,5.436,3.611-0.847,1.351Zm18.7-42.522,1.671,0.358c-0.371,2.139-.728,4.2-1.106,6.368l-1.59-.152C339.124,223.782,339.454,221.664,339.8,219.422Zm-0.063,71.1c-0.154-.687-0.256-1.141-0.372-1.657L345.7,287.3c0.123,0.427.256,0.889,0.442,1.539Zm65.115-28.5-1.37,1.009c-1.319-1.713-2.615-3.394-3.982-5.17,0.343-.283.715-0.589,1.237-1.017Zm-83.73-14.048,1.376-1.008,3.975,5.169-1.227,1.027Zm75.4-19.007c-0.093.728-.154,1.209-0.215,1.689l-6.478-.592c0.028-.474.055-0.929,0.093-1.592Zm-60.549,1.324h-1.572v-6.468h1.572v6.468Zm14.954-9.879c-0.424-.219-0.828-0.43-1.412-0.733,1.022-1.936,2.022-3.829,3.083-5.835l1.485,0.846Zm35.329-.929c0.142,0.72.236,1.2,0.33,1.669L380.3,222.7l-0.47-1.524ZM363.115,291.66l1.208,1.064-4.874,4.57-1.118-1.281Zm-33.654-10.617c0.089-.7.152-1.179,0.217-1.682l6.383,0.549v1.59Zm-6.619-39.865,1.524-.759c1.021,1.9,2.022,3.773,3.082,5.749l-1.384.8Zm68.725,45.01h-1.549v-6.471l1.549-.073v6.544ZM300,181H427v38H300V181Zm9,111H436v38H309V292Z" transform="translate(-317 -209)"/>
</svg>
